<?xml version="1.0" encoding="UTF-8" standalone="no"?>
<svg
   width="3.41333in"
   height="3.41333in"
   viewBox="0 0 1024 1024"
   version="1.1"
   id="svg1"
   sodipodi:docname="gospin.svg"
   inkscape:version="1.4.2 (ebf0e940d0, 2025-05-08)"
   xmlns:inkscape="http://www.inkscape.org/namespaces/inkscape"
   xmlns:sodipodi="http://sodipodi.sourceforge.net/DTD/sodipodi-0.dtd"
   xmlns="http://www.w3.org/2000/svg"
   xmlns:svg="http://www.w3.org/2000/svg">
  <defs
     id="defs1" />
  <sodipodi:namedview
     id="namedview1"
     pagecolor="#505050"
     bordercolor="#eeeeee"
     borderopacity="1"
     inkscape:showpageshadow="0"
     inkscape:pageopacity="0"
     inkscape:pagecheckerboard="0"
     inkscape:deskcolor="#505050"
     inkscape:document-units="in"
     inkscape:zoom="2.5207544"
     inkscape:cx="163.83984"
     inkscape:cy="163.83984"
     inkscape:window-width="1920"
     inkscape:window-height="1012"
     inkscape:window-x="0"
     inkscape:window-y="0"
     inkscape:window-maximized="1"
     inkscape:current-layer="svg1" />
  <path
     id="DownArrowOne"
     fill="none"
     stroke="black"
     stroke-width="1"
     d="M 128.00,864.00            C 128.00,864.00 96.00,736.00 96.00,736.00"
     style="stroke:#1deae9;stroke-opacity:1;stroke-width:18.75001788;stroke-dasharray:none;stroke-linejoin:round;stroke-linecap:round" />
  <path
     id="UpArrowOne"
     fill="none"
     stroke="black"
     stroke-width="1"
     d="M 896.00,128.00            C 896.00,128.00 928.00,288.00 928.00,288.00"
     style="stroke-width:18.75001788;stroke-dasharray:none;stroke-linecap:round;stroke-linejoin:round;stroke:#1deae9;stroke-opacity:1" />
  <path
     id="SemiArrowDown"
     fill="none"
     stroke="black"
     stroke-width="1"
     d="M 96.00,736.00            C 96.00,736.00 294.21,960.00 498.28,960.00              710.06,960.00 928.00,736.00 928.00,736.00"
     style="stroke-linejoin:round;stroke-linecap:round;stroke-width:18.75001788;stroke-dasharray:none;stroke:#1deae9;stroke-opacity:1" />
  <path
     id="SemiArrowUp"
     fill="none"
     stroke="black"
     stroke-width="1"
     d="M 96.00,288.00            C 96.00,288.00 292.25,64.00 495.11,64.00              708.01,64.00 928.00,288.00 928.00,288.00M 800.00,288.00"
     style="stroke:#1deae9;stroke-opacity:1;stroke-width:18.75001788;stroke-dasharray:none;stroke-linejoin:round;stroke-linecap:round" />
  <path
     id="Path"
     fill="none"
     stroke="black"
     stroke-width="1"
     d="M 353.39,646.00            C 321.00,646.00 296.06,636.20 278.56,616.61              261.07,597.02 252.33,568.52 252.33,531.12              252.33,504.95 256.64,476.21 265.27,444.92              273.89,413.62 285.28,387.89 299.44,367.73              313.60,347.57 330.69,332.41 350.70,322.25              370.72,312.09 393.84,307.00 420.05,307.00              476.04,307.00 508.34,333.80 516.97,387.39              516.97,387.39 472.53,401.00 472.53,401.00              466.68,363.73 446.90,345.09 413.20,345.09              395.80,345.09 380.62,349.12 367.67,357.17              354.73,365.21 343.62,377.36 334.34,393.61              325.07,409.86 317.22,431.52 310.80,458.58              304.37,485.64 301.16,509.50 301.16,530.14              301.16,582.15 322.31,608.16 364.62,608.16              375.70,608.16 387.46,606.45 399.91,603.03              412.35,599.62 422.97,595.30 431.77,590.09              431.77,590.09 447.64,508.06 447.64,508.06              447.64,508.06 376.09,508.06 376.09,508.06              376.09,508.06 383.67,469.00 383.67,469.00              383.67,469.00 500.61,469.00 500.61,469.00              500.61,469.00 473.52,608.64 473.52,608.64              432.00,633.55 391.96,646.00 353.39,646.00 Z            M 647.05,646.00            C 614.17,646.00 589.59,636.53 573.31,617.59              557.04,598.65 548.91,571.53 548.91,536.25              548.91,510.24 552.93,481.71 560.98,450.66              569.05,419.59 580.20,393.29 594.44,371.75              608.68,350.21 625.72,334.03 645.58,323.22              665.44,312.41 688.07,307.00 713.45,307.00              745.68,307.00 770.18,315.98 786.94,333.95              803.71,351.92 812.09,378.87 812.09,414.80              812.09,440.00 808.10,468.12 800.12,499.19              792.14,530.24 780.83,556.87 766.19,579.06              751.54,601.25 734.12,617.95 713.94,629.17              693.76,640.39 671.46,646.00 647.05,646.00 Z            M 762.77,418.48            C 762.77,369.56 743.88,345.09 706.12,345.09              683.99,345.09 665.15,353.18 649.61,369.36              634.07,385.53 621.61,410.03 612.25,442.86              602.89,475.70 598.22,505.52 598.22,532.33              598.22,582.88 617.02,608.16 654.61,608.16              670.89,608.16 685.21,603.93 697.58,595.48              709.95,587.03 720.90,573.70 730.42,555.50              739.94,537.29 747.71,514.74 753.73,487.84              759.75,460.94 762.77,437.82 762.77,418.48 Z"
     style="stroke-linejoin:round;stroke-linecap:round;stroke-width:18.75001788;stroke-dasharray:none;stroke:#1deae9;stroke-opacity:0;fill:#1deae9;fill-opacity:1" />
  <path
     id="X"
     fill="none"
     stroke="black"
     stroke-width="1"
     d="M 685.44,447.30            C 685.44,447.30 748.72,372.00 748.72,372.00              748.72,372.00 778.75,372.00 778.75,372.00              778.75,372.00 696.72,466.52 696.72,466.52              696.72,466.52 746.38,570.00 746.38,570.00              746.38,570.00 716.34,570.00 716.34,570.00              716.34,570.00 677.83,485.89 677.83,485.89              677.83,485.89 606.92,570.00 606.92,570.00              606.92,570.00 576.89,570.00 576.89,570.00              576.89,570.00 666.69,466.52 666.69,466.52              666.69,466.52 621.28,372.00 621.28,372.00              621.28,372.00 651.31,372.00 651.31,372.00              651.31,372.00 685.44,447.30 685.44,447.30 Z"
     style="fill:none;fill-opacity:1;stroke:#1d31e7;stroke-opacity:1;stroke-width:9.37500894;stroke-dasharray:none;stroke-linecap:round;paint-order:normal;stroke-linejoin:round" />
</svg>
